<?xml version="1.0" encoding="utf-8"?>
<!-- Generator: Adobe Illustrator 18.0.0, SVG Export Plug-In . SVG Version: 6.00 Build 0)  -->
<!DOCTYPE svg PUBLIC "-//W3C//DTD SVG 1.1//EN" "http://www.w3.org/Graphics/SVG/1.1/DTD/svg11.dtd">
<svg version="1.1" id="Layer_1" xmlns="http://www.w3.org/2000/svg" xmlns:xlink="http://www.w3.org/1999/xlink" x="0px" y="0px"
	 viewBox="0 0 612 792" enable-background="new 0 0 612 792" xml:space="preserve">
<g>
	<text transform="matrix(1 0 0 1 296.6238 411.0518)"><tspan x="0" y="0" fill="#565759" font-family="'Comfortaa-Bold'" font-size="32.2678">1 </tspan><tspan x="18.3" y="0" fill="#565759" font-family="'Comfortaa-Light'" font-size="32.2678">FIX</tspan></text>
	<g>
		<path fill="#F15A29" d="M254.2,363.8c-13.8,0-25,11.2-25,25c0,16,18.8,38.8,25,38.8c5.3,0,25-22.9,25-38.8
			C279.2,375,268,363.8,254.2,363.8z M254,422.6c-4.9-2.3-20-20.7-20-33.7c0-11.1,9-20.1,20.1-20.1c11.1,0,20.1,9,20.1,20.1
			C274.3,401.5,259.1,419.9,254,422.6z"/>
		<path fill="#565759" d="M263.8,383.8c-2.1-5.4-8.2-8-13.6-5.9c-5.4,2.1-8,8.2-5.9,13.6c1.1,2.7,3.1,4.7,5.6,5.8l-2.7,6.3l12.4-7
			c0,0,0,0,0,0C263.8,394,265.7,388.6,263.8,383.8z M260.4,386.9c-0.8,0.1-1.5-0.6-1.9-1.3c-0.7-1.6-1.4-2.3-3-3
			c-0.8-0.3-1.5-1.1-1.4-1.9c0.1-0.8,1.3-1.3,2.5-0.8c2.3,1,3.2,2.1,4.5,4.5C261.7,385.6,261.2,386.8,260.4,386.9z"/>
	</g>
</g>
</svg>
