<?xml version="1.0" encoding="utf-8"?>
<!-- Generator: Adobe Illustrator 18.0.0, SVG Export Plug-In . SVG Version: 6.00 Build 0)  -->
<!DOCTYPE svg PUBLIC "-//W3C//DTD SVG 1.1//EN" "http://www.w3.org/Graphics/SVG/1.1/DTD/svg11.dtd">
<svg version="1.1" id="Layer_1" xmlns="http://www.w3.org/2000/svg" xmlns:xlink="http://www.w3.org/1999/xlink" x="0px" y="0px"
	 viewBox="0 0 612 792" enable-background="new 0 0 612 792" xml:space="preserve">
<g>
	<g>
		<path fill="#3D3D3D" d="M305,345.8c-13.8,0-25,11.2-25,25c0,16,18.8,38.8,25,38.8c5.3,0,25-22.9,25-38.8
			C330,357,318.8,345.8,305,345.8z M304.8,404.6c-4.9-2.3-20-20.7-20-33.7c0-11.1,9-20.1,20.1-20.1c11.1,0,20.1,9,20.1,20.1
			C325.1,383.4,309.9,401.9,304.8,404.6z"/>
		<path fill="#3D3D3D" d="M314.6,365.8c-2.1-5.4-8.2-8-13.6-5.9c-5.4,2.1-8,8.2-5.9,13.6c1.1,2.7,3.1,4.7,5.6,5.8l-2.7,6.3l12.4-7
			c0,0,0,0,0,0C314.6,376,316.5,370.6,314.6,365.8z M311.2,368.9c-0.8,0.1-1.5-0.6-1.9-1.3c-0.7-1.6-1.4-2.3-3-3
			c-0.8-0.3-1.5-1.1-1.4-1.9c0.1-0.8,1.3-1.3,2.5-0.8c2.3,1,3.2,2.1,4.5,4.5C312.5,367.6,312,368.8,311.2,368.9z"/>
	</g>
	<g>
		<path fill="#3D3D3D" d="M278.8,445.1V427c-0.3,0.1-0.6,0.2-0.9,0.3c-0.3,0.1-0.6,0.2-0.9,0.2c-0.4,0-0.8-0.1-1.1-0.4
			s-0.4-0.6-0.4-1.1c0-0.3,0.1-0.6,0.2-0.8c0.2-0.2,0.4-0.4,0.7-0.6l3.3-1.1c0.2-0.1,0.4-0.1,0.5-0.1c0.4,0,0.8,0.1,1.1,0.4
			s0.4,0.7,0.4,1.1v20.3c0,0.4-0.1,0.8-0.4,1.1s-0.7,0.4-1.1,0.4c-0.4,0-0.8-0.1-1.1-0.4C279,445.9,278.8,445.6,278.8,445.1z"/>
		<path fill="#3D3D3D" d="M308,423.3c0.2,0,0.5,0.1,0.6,0.3c0.2,0.2,0.3,0.4,0.3,0.6c0,0.2-0.1,0.5-0.3,0.6
			c-0.2,0.2-0.4,0.3-0.6,0.3h-13.5v9h9.9c0.3,0,0.5,0.1,0.6,0.3c0.2,0.2,0.3,0.4,0.3,0.6c0,0.3-0.1,0.5-0.3,0.6
			c-0.2,0.2-0.4,0.3-0.6,0.3h-9.9v9.9c0,0.3-0.1,0.5-0.3,0.6s-0.4,0.3-0.6,0.3s-0.5-0.1-0.6-0.3s-0.3-0.4-0.3-0.6v-21.5
			c0-0.3,0.1-0.5,0.3-0.6s0.4-0.3,0.6-0.3H308z"/>
		<path fill="#3D3D3D" d="M312.8,424.2c0-0.3,0.1-0.5,0.3-0.6c0.2-0.2,0.4-0.3,0.6-0.3s0.5,0.1,0.6,0.3c0.2,0.2,0.3,0.4,0.3,0.6
			v21.5c0,0.3-0.1,0.5-0.3,0.6c-0.2,0.2-0.4,0.3-0.6,0.3s-0.5-0.1-0.6-0.3c-0.2-0.2-0.3-0.4-0.3-0.6V424.2z"/>
		<path fill="#3D3D3D" d="M327.7,433.5l7.6-9.8c0.2-0.3,0.5-0.4,0.8-0.4c0.2,0,0.5,0.1,0.6,0.3s0.3,0.4,0.3,0.6c0,0.2,0,0.4-0.1,0.5
			l-8,10.3l7.9,10.2c0.1,0.2,0.2,0.3,0.2,0.6c0,0.3-0.1,0.5-0.3,0.6s-0.4,0.3-0.6,0.3c-0.3,0-0.5-0.1-0.7-0.3l-7.7-9.9l-7.7,9.9
			c-0.2,0.2-0.4,0.3-0.7,0.3c-0.3,0-0.5-0.1-0.6-0.3s-0.3-0.4-0.3-0.6c0-0.2,0.1-0.4,0.2-0.6l7.9-10.2l-8-10.3
			c-0.1-0.1-0.2-0.3-0.2-0.5c0-0.3,0.1-0.5,0.3-0.6s0.4-0.3,0.6-0.3c0.3,0,0.5,0.1,0.7,0.4L327.7,433.5z"/>
	</g>
</g>
</svg>
