<svg id="Layer_1" data-name="Layer 1" xmlns="http://www.w3.org/2000/svg" viewBox="0 0 159.76 48.38"><defs><style>.cls-1{fill:#f05a28;}.cls-2{fill:#565859;}</style></defs><title>logo</title><path class="cls-1" d="M35.19,0.87a19,19,0,0,0-19,19c0,12.12,14.23,29.42,19,29.42,4,0,19-17.38,19-29.42A19,19,0,0,0,35.19.87ZM35.1,45.41C31.42,43.63,20,29.72,20,19.82a15.24,15.24,0,1,1,30.47,0C50.43,29.39,38.92,43.35,35.1,45.41Z" transform="translate(-16.24 -0.87)"/><path class="cls-2" d="M42.51,16A8,8,0,1,0,32,26.23L29.88,31l9.38-5.3h0A7.94,7.94,0,0,0,42.51,16ZM39.9,18.37a1.49,1.49,0,0,1-1.42-1,3.65,3.65,0,0,0-2.25-2.26,1.48,1.48,0,0,1-1-1.41,1.3,1.3,0,0,1,1.9-.62,6.22,6.22,0,0,1,3.41,3.42A1.3,1.3,0,0,1,39.9,18.37Z" transform="translate(-16.24 -0.87)"/><path class="cls-2" d="M62.2,44.63V9.07q-0.86.29-1.8,0.64a4.87,4.87,0,0,1-1.71.36,2.88,2.88,0,0,1-3-3,2.88,2.88,0,0,1,.47-1.63,3.4,3.4,0,0,1,1.44-1.17l6.54-2.17a2.94,2.94,0,0,1,3.16.67,2.94,2.94,0,0,1,.84,2.13V44.63a2.86,2.86,0,0,1-.87,2.1,2.89,2.89,0,0,1-2.13.87A3,3,0,0,1,62.2,44.63Z" transform="translate(-16.24 -0.87)"/><path class="cls-2" d="M119.3,1.89a1.68,1.68,0,0,1,1.23.51A1.71,1.71,0,0,1,121,3.67a1.67,1.67,0,0,1-.51,1.23,1.68,1.68,0,0,1-1.23.51H92.9V23h19.34a1.77,1.77,0,1,1,0,3.54H92.9V45.83a1.74,1.74,0,0,1-.5,1.26,1.66,1.66,0,0,1-1.24.51,1.76,1.76,0,0,1-1.77-1.77V3.67a1.76,1.76,0,0,1,1.77-1.77H119.3Z" transform="translate(-16.24 -0.87)"/><path class="cls-2" d="M128.75,3.67a1.73,1.73,0,0,1,.5-1.26,1.66,1.66,0,0,1,1.24-.51,1.76,1.76,0,0,1,1.77,1.77V45.83a1.76,1.76,0,0,1-1.77,1.77,1.66,1.66,0,0,1-1.24-.51,1.73,1.73,0,0,1-.5-1.26V3.67Z" transform="translate(-16.24 -0.87)"/><path class="cls-2" d="M157.83,21.86l14.94-19.2a1.92,1.92,0,0,1,1.48-.77,1.68,1.68,0,0,1,1.23.51A1.71,1.71,0,0,1,176,3.67a1.77,1.77,0,0,1-.28,1L160.09,24.75l15.54,20a1.82,1.82,0,0,1-.14,2.37,1.76,1.76,0,0,1-2.57-.09L157.83,27.66,142.75,47a1.6,1.6,0,0,1-1.31.6,1.77,1.77,0,0,1-1.37-2.89l15.51-20L140,4.64a1.46,1.46,0,0,1-.31-1,1.76,1.76,0,0,1,1.77-1.77,1.79,1.79,0,0,1,1.46.77Z" transform="translate(-16.24 -0.87)"/></svg>