<?xml version="1.0" encoding="utf-8"?>
<!-- Generator: Adobe Illustrator 19.2.0, SVG Export Plug-In . SVG Version: 6.00 Build 0)  -->
<svg version="1.1" id="Layer_1" xmlns="http://www.w3.org/2000/svg" xmlns:xlink="http://www.w3.org/1999/xlink" x="0px" y="0px"
	 viewBox="0 0 46 46" style="enable-background:new 0 0 46 46;" xml:space="preserve">
<style type="text/css">
	.st0{fill:#007DC4;}
</style>
<g>
	<polygon class="st0" points="37.1,31.9 23.7,39.7 23.7,46 42.6,35.1 42.6,13.1 37.1,16.1 	"/>
	<polygon class="st0" points="22.8,7.2 35.9,14.8 41.6,11.7 22.8,0.9 3.4,12.1 9.6,14.9 	"/>
	<polygon class="st0" points="8.6,31.9 8.6,16.3 3.1,13.8 3.1,35.1 22,46 22,39.7 	"/>
	<path class="st0" d="M28.2,22.8c-0.7,0-1.8,0-1.8,0v-0.3c0,0,0-0.4,0-0.6c-0.3-2.1-2.1-3.6-4.2-3.6c-2.1,0-3.9,1.6-4.2,3.6h-0.4
		c-1.5,0-2.9,1.1-2.7,4c0.1,0.9,0.9,2,2.7,2h10.5c1.5,0,2.7-1.1,2.7-2.4C30.8,24.1,29.9,22.8,28.2,22.8"/>
</g>
</svg>
